<?xml version="1.0" encoding="utf-8"?>
<!-- Generator: Adobe Illustrator 24.0.1, SVG Export Plug-In . SVG Version: 6.00 Build 0)  -->
<svg version="1.1" id="Capa_1" xmlns="http://www.w3.org/2000/svg" xmlns:xlink="http://www.w3.org/1999/xlink" x="0px" y="0px"
	 viewBox="0 0 512 512" style="enable-background:new 0 0 512 512;" xml:space="preserve">
<style type="text/css">
	.st0{fill:none;stroke:#1D1D1B;stroke-miterlimit:10;}
	.st1{fill:#E53328;}
	.st2{fill:url(#SVGID_1_);}
	.st3{fill:url(#SVGID_2_);}
	.st4{fill:url(#SVGID_3_);}
	.st5{fill:#0FA2B7;}
	.st6{fill:url(#SVGID_4_);}
	.st7{fill:url(#SVGID_5_);}
	.st8{fill:url(#SVGID_6_);}
	.st9{fill:none;}
	.st10{fill:#868686;}
</style>
<g>
	<path class="st0" d="M355.45,448.44c-0.43-0.32-0.91-0.64-1.33-0.96c0.43,0.32,0.85,0.59,1.28,0.85
		C355.45,448.39,355.45,448.44,355.45,448.44z"/>
	<path class="st1" d="M355.39,448.33c-0.43-0.27-0.85-0.53-1.28-0.85c0.43,0.32,0.91,0.64,1.33,0.96
		C355.45,448.44,355.45,448.39,355.39,448.33z"/>
	<linearGradient id="SVGID_1_" gradientUnits="userSpaceOnUse" x1="7.4988" y1="381.7556" x2="414.5546" y2="381.7556">
		<stop  offset="0" style="stop-color:#E53328"/>
		<stop  offset="0.3808" style="stop-color:#E33328"/>
		<stop  offset="0.518" style="stop-color:#DC3126"/>
		<stop  offset="0.6158" style="stop-color:#D02E24"/>
		<stop  offset="0.6949" style="stop-color:#C02B21"/>
		<stop  offset="0.7626" style="stop-color:#AA261E"/>
		<stop  offset="0.8226" style="stop-color:#8E2019"/>
		<stop  offset="0.8769" style="stop-color:#6E1813"/>
		<stop  offset="0.9268" style="stop-color:#48100D"/>
		<stop  offset="0.9711" style="stop-color:#1F0705"/>
		<stop  offset="1" style="stop-color:#000000"/>
	</linearGradient>
	<path class="st2" d="M388.88,365.59c-0.16,2.88-0.05,5.8,0.27,8.68c0.27,2.4,0.37,4.74,0.37,7.03c0,48.77-56.33,78.85-97.33,48.93
		c-10.76-7.88-23.43-11.82-36.1-11.82s-25.34,3.94-36.1,11.82c-11.29,8.25-23.75,11.93-35.89,11.93
		c-33.97,0-65.33-28.96-61.07-67.89c0.27-2.24,0.37-4.42,0.37-6.66c0-24.01-14.11-46.11-36.47-55.96c-0.43-0.21-0.91-0.37-1.33-0.64
		L7.5,279.07c6.02,19.01,19.7,35.89,41.05,45.31c27.42,12.09,44.78,39.19,44.78,68.63c0,2.66-0.11,5.38-0.43,8.09
		c-5.22,47.81,33.22,83.33,74.86,83.33c14.91,0,30.19-4.53,44.03-14.64c13.15-9.64,28.75-14.48,44.3-14.48
		c15.55,0,31.15,4.85,44.3,14.48c30.67,22.42,68.36,17.41,93.12-3.51L388.88,365.59z M354.12,447.48c0.43,0.32,0.85,0.59,1.28,0.85
		c0.05,0.05,0.05,0.11,0.05,0.11C355.02,448.12,354.54,447.8,354.12,447.48z"/>
	<linearGradient id="SVGID_2_" gradientUnits="userSpaceOnUse" x1="474.7524" y1="342.7816" x2="251.72" y2="102.708">
		<stop  offset="0" style="stop-color:#E53328"/>
		<stop  offset="0.2892" style="stop-color:#E33328"/>
		<stop  offset="0.4309" style="stop-color:#DB3126"/>
		<stop  offset="0.5405" style="stop-color:#CE2E24"/>
		<stop  offset="0.6336" style="stop-color:#BB2A21"/>
		<stop  offset="0.7163" style="stop-color:#A3241D"/>
		<stop  offset="0.7917" style="stop-color:#851E17"/>
		<stop  offset="0.8614" style="stop-color:#621611"/>
		<stop  offset="0.9267" style="stop-color:#390D0A"/>
		<stop  offset="0.9862" style="stop-color:#0C0302"/>
		<stop  offset="1" style="stop-color:#000000"/>
	</linearGradient>
	<path class="st3" d="M508.36,255.7c0,27.79-14.91,55.53-44.72,68.68c-29.92,13.2-47.87,44.25-44.35,76.72
		c0.32,2.93,0.48,5.86,0.48,8.68c0,23.32-10.49,43.13-26.25,56.49l-4.63-100.68v-0.43c0.85-23.05,14.75-43.98,36.37-53.51
		c24.33-10.7,36.53-33.33,36.53-55.96c0-22.58-12.19-45.2-36.53-55.91c-22.36-9.85-36.47-31.95-36.47-55.96
		c0-2.24,0.11-4.42,0.37-6.66c4.26-38.92-27.1-67.89-61.07-67.89c-12.14,0-24.6,3.67-35.89,11.93c-2.24,1.65-4.53,3.09-6.92,4.37
		l83.7-54.36c30.83,10.65,54.47,41,50.32,79.12c-0.32,2.72-0.43,5.43-0.43,8.09c0,29.44,17.36,56.54,44.78,68.63
		C493.45,200.22,508.36,227.96,508.36,255.7z"/>
	<linearGradient id="SVGID_3_" gradientUnits="userSpaceOnUse" x1="230.3826" y1="27.8219" x2="92.7846" y2="366.049">
		<stop  offset="0" style="stop-color:#E53328"/>
		<stop  offset="0.2584" style="stop-color:#E33228"/>
		<stop  offset="0.4" style="stop-color:#DB3126"/>
		<stop  offset="0.5133" style="stop-color:#CD2E24"/>
		<stop  offset="0.6118" style="stop-color:#B92920"/>
		<stop  offset="0.7005" style="stop-color:#A0241C"/>
		<stop  offset="0.7822" style="stop-color:#811D17"/>
		<stop  offset="0.8587" style="stop-color:#5C1510"/>
		<stop  offset="0.9294" style="stop-color:#320B09"/>
		<stop  offset="0.996" style="stop-color:#030101"/>
		<stop  offset="1" style="stop-color:#000000"/>
	</linearGradient>
	<path class="st4" d="M368.97,31.22l-83.7,54.36c-9.05,4.95-19.11,7.45-29.18,7.45c-12.67,0-25.34-3.94-36.1-11.82
		c-41-29.92-97.33,0.16-97.33,48.93c0,2.29,0.11,4.63,0.37,7.03c0.27,2.24,0.37,4.42,0.37,6.66c0,24.01-14.11,46.11-36.47,55.96
		c-24.33,10.7-36.53,33.33-36.53,55.91c0,22.2,11.77,44.41,35.19,55.32L7.5,279.07c-2.45-7.56-3.67-15.44-3.67-23.37
		c0-27.74,14.91-55.48,44.72-68.63c27.42-12.09,44.78-39.19,44.78-68.63c0-2.66-0.11-5.38-0.43-8.09c-0.32-2.93-0.48-5.86-0.48-8.68
		c0-59.85,69.11-96.74,119.37-60.01c13.15,9.69,28.75,14.48,44.3,14.48c15.55,0,31.15-4.79,44.3-14.48
		c13.84-10.12,29.12-14.64,44.03-14.64C352.84,27.02,361.14,28.45,368.97,31.22z"/>
	<path class="st5" d="M337.24,193.19c3.03,1.38,6.23,2.34,9.64,2.88c0.37,0.05,0.75,0.11,1.06,0.21L337.24,193.19z"/>
	<linearGradient id="SVGID_4_" gradientUnits="userSpaceOnUse" x1="186.8061" y1="342.8116" x2="165.3514" y2="157.4435">
		<stop  offset="0" style="stop-color:#0FA2B7"/>
		<stop  offset="0.3152" style="stop-color:#0FA0B5"/>
		<stop  offset="0.4653" style="stop-color:#0E99AD"/>
		<stop  offset="0.5804" style="stop-color:#0D8EA0"/>
		<stop  offset="0.6777" style="stop-color:#0C7E8E"/>
		<stop  offset="0.7637" style="stop-color:#0A6876"/>
		<stop  offset="0.8419" style="stop-color:#074E58"/>
		<stop  offset="0.9141" style="stop-color:#042F35"/>
		<stop  offset="0.9797" style="stop-color:#010C0E"/>
		<stop  offset="1" style="stop-color:#000000"/>
	</linearGradient>
	<path class="st6" d="M263.39,362.88l-30.77,42.75c-3.73,0.32-7.4,0.21-11.02-0.32c-0.53-0.05-1.01-0.11-1.49-0.21
		c-1.17-0.21-2.29-0.48-3.41-0.75c-2.56-0.64-5-1.54-7.4-2.61c-0.96-0.43-1.92-0.91-2.88-1.44c-0.91-0.48-1.81-1.01-2.72-1.54
		c-0.64-0.37-1.33-0.8-1.97-1.28c-0.43-0.27-0.8-0.53-1.17-0.85c-0.59-0.43-1.12-0.85-1.7-1.33c-0.16-0.11-0.32-0.21-0.48-0.37
		c-0.53-0.43-1.06-0.91-1.6-1.44c-0.11-0.05-0.16-0.11-0.21-0.21c-0.75-0.69-1.49-1.44-2.18-2.24c-0.59-0.59-1.12-1.22-1.65-1.86
		c-0.43-0.43-0.75-0.91-1.06-1.33c-0.43-0.59-0.85-1.12-1.22-1.7c-0.69-0.91-1.28-1.92-1.86-2.88c-0.43-0.69-0.8-1.44-1.17-2.24
		c-0.32-0.59-0.64-1.22-0.91-1.86c-0.05,0-0.05-0.05-0.05-0.11c-0.27-0.59-0.53-1.17-0.75-1.81c-0.05-0.11-0.11-0.21-0.11-0.37
		c-0.27-0.53-0.48-1.12-0.64-1.65v-0.05c-0.43-1.06-0.69-2.08-1.01-3.19c-0.43-1.6-0.75-3.25-1.01-4.9
		c-1.49-9.85-6.18-18.64-12.83-25.34c-6.71-6.71-15.55-11.34-25.34-12.83c-10.33-1.65-18.85-6.28-25.29-12.67
		c-17.94-17.94-19.22-49.84,3.67-68.21c1.28-1.01,2.5-2.13,3.62-3.3c12.73-12.67,16.93-31.84,10.33-48.88
		c-2.18-5.64-3.19-11.34-3.19-16.77c0-0.91,0.05-1.81,0.11-2.72c0.05-0.85,0.11-1.7,0.21-2.56c0.05-0.48,0.11-0.91,0.21-1.38
		c0.05-0.43,0.16-0.85,0.21-1.33c0.11-0.91,0.32-1.81,0.59-2.72c0.21-0.85,0.43-1.65,0.69-2.45c0.21-0.8,0.48-1.6,0.8-2.4
		c0.48-1.33,1.06-2.72,1.7-4.05c0.16-0.27,0.27-0.48,0.43-0.75l19.65,46.48c0.16,0.59,0.37,1.12,0.59,1.7
		c5.38,13.9,1.97,29.5-8.41,39.83c-0.96,0.96-1.92,1.86-2.98,2.72c-18.64,14.96-17.57,40.94-2.98,55.59
		c5.27,5.22,12.19,9,20.61,10.33c8.04,1.22,15.23,5,20.66,10.44c5.48,5.48,9.26,12.62,10.49,20.66
		c4.74,30.56,42.01,41.9,63.04,20.87c0.96-1.01,1.92-2.08,2.82-3.19C262.7,363.73,263.02,363.3,263.39,362.88z"/>
	<linearGradient id="SVGID_5_" gradientUnits="userSpaceOnUse" x1="388.125" y1="262.8191" x2="210.0284" y2="382.9688">
		<stop  offset="0" style="stop-color:#0FA2B7"/>
		<stop  offset="0.1356" style="stop-color:#0F9EB3"/>
		<stop  offset="0.284" style="stop-color:#0E92A5"/>
		<stop  offset="0.4384" style="stop-color:#0C7F8F"/>
		<stop  offset="0.5971" style="stop-color:#096471"/>
		<stop  offset="0.759" style="stop-color:#064149"/>
		<stop  offset="0.9214" style="stop-color:#02171A"/>
		<stop  offset="1" style="stop-color:#000000"/>
	</linearGradient>
	<path class="st7" d="M406.19,228.06c0,2.4-0.16,4.85-0.59,7.29c-0.05,0.37-0.11,0.69-0.21,1.06v0.05c-0.21,1.22-0.48,2.4-0.8,3.57
		c-0.21,0.8-0.48,1.6-0.75,2.4c-0.27,0.75-0.53,1.54-0.85,2.29c-1.01,2.66-2.4,5.27-4.05,7.77c-0.43,0.64-0.85,1.28-1.28,1.86
		c-0.43,0.64-0.91,1.22-1.38,1.81c-2.08,2.61-4.47,5-7.24,7.24c-1.28,1.01-2.5,2.13-3.62,3.3c-12.73,12.67-16.93,31.84-10.33,48.88
		c7.19,18.48,1.7,36.9-10.28,48.82c-11.98,11.98-30.35,17.52-48.88,10.33c-18.58-7.19-39.67-1.54-52.18,13.95
		c-1.12,1.38-2.29,2.72-3.51,3.94c-1.12,1.12-2.29,2.18-3.51,3.14c-0.91,0.75-1.81,1.44-2.77,2.08c-0.91,0.64-1.86,1.22-2.82,1.81
		c-1.33,0.8-2.66,1.49-3.99,2.08c-1.17,0.53-2.34,1.01-3.51,1.44c-0.85,0.32-1.7,0.59-2.56,0.85c-0.48,0.16-0.91,0.27-1.38,0.37
		c-0.96,0.27-1.92,0.48-2.82,0.64c-0.37,0.05-0.8,0.16-1.22,0.21c-1.01,0.16-1.97,0.27-2.98,0.37h-0.05l30.77-42.75l0.32-0.37
		c10.38-11.39,26.73-15.39,41.16-9.8c15.12,5.91,30.14,1.38,39.88-8.36c9.74-9.74,14.22-24.76,8.36-39.83
		c-5.38-13.9-1.97-29.5,8.41-39.83c0.96-0.96,1.92-1.86,2.98-2.72c18.64-14.96,17.57-40.94,2.98-55.59
		c-3.46-3.46-7.67-6.28-12.57-8.09l48.5,13.84v0.05c0.59,1.49,1.01,3.03,1.38,4.63c0.27,1.06,0.48,2.08,0.69,3.14
		c0.21,1.17,0.37,2.4,0.48,3.57c0.05,0.32,0.05,0.69,0.05,1.06C406.13,225.72,406.19,226.89,406.19,228.06z"/>
	<linearGradient id="SVGID_6_" gradientUnits="userSpaceOnUse" x1="167.748" y1="82.0312" x2="346.1232" y2="277.4243">
		<stop  offset="0" style="stop-color:#0FA2B7"/>
		<stop  offset="0.2604" style="stop-color:#0FA0B5"/>
		<stop  offset="0.4119" style="stop-color:#0E99AC"/>
		<stop  offset="0.5355" style="stop-color:#0D8C9E"/>
		<stop  offset="0.6441" style="stop-color:#0B7A8A"/>
		<stop  offset="0.7428" style="stop-color:#096370"/>
		<stop  offset="0.8345" style="stop-color:#074750"/>
		<stop  offset="0.9188" style="stop-color:#04262B"/>
		<stop  offset="0.9986" style="stop-color:#000101"/>
		<stop  offset="1" style="stop-color:#000000"/>
	</linearGradient>
	<path class="st8" d="M403.42,212.14l-48.5-13.84c-2.18-0.91-4.53-1.6-6.97-2.02l-10.7-3.09c-4.15-1.81-7.88-4.42-11.02-7.56
		c-5.48-5.48-9.26-12.62-10.49-20.66c-4.74-30.56-42.01-41.9-63.04-20.87c-0.96,1.01-1.92,2.08-2.82,3.19
		c-0.85,1.06-1.76,2.08-2.72,3.03c-10.38,10.33-25.98,13.79-39.83,8.41c-15.12-5.91-30.14-1.38-39.83,8.36
		c-9.42,9.37-13.95,23.64-9,38.12l-19.65-46.48v-0.05c0.53-1.06,1.12-2.08,1.7-3.09c0.37-0.59,0.8-1.22,1.22-1.81
		c0.37-0.59,0.8-1.17,1.22-1.76c0,0,0-0.05,0.05-0.05c0.59-0.8,1.22-1.54,1.86-2.29c0.8-0.91,1.6-1.81,2.45-2.66
		c11.98-11.98,30.35-17.52,48.88-10.33c17.04,6.6,36.15,2.4,48.88-10.28c1.12-1.17,2.24-2.34,3.3-3.67
		c1.12-1.38,2.29-2.72,3.51-3.94c25.82-25.77,71.51-11.93,77.31,25.56c1.49,9.85,6.18,18.64,12.83,25.34
		c6.71,6.71,15.49,11.34,25.34,12.83c10.33,1.65,18.85,6.28,25.29,12.67c1.06,1.06,2.13,2.24,3.09,3.41
		c0.96,1.22,1.86,2.45,2.72,3.73c0.64,1.01,1.28,2.02,1.86,3.14c0.48,0.85,0.91,1.76,1.33,2.61c0.32,0.59,0.59,1.22,0.8,1.81
		c0.21,0.48,0.43,0.96,0.59,1.44C403.21,211.61,403.31,211.88,403.42,212.14z"/>
	<path class="st9" d="M347.94,196.28l6.97,2.02C352.73,197.39,350.39,196.7,347.94,196.28z"/>
	<path class="st10" d="M250.02,178.65l-14.43,29.87c-3.51,3.94-8.63,6.23-14.06,6.23c-0.69,0-1.33,0-2.02-0.11
		c-12.03-1.28-20.98,8.36-20.98,18.85c0,3.78,1.17,7.61,3.67,11.07c2.45,3.35,3.67,7.24,3.67,11.18c0,3.89-1.22,7.77-3.67,11.13
		c-9,12.35-0.32,29.34,14.22,29.98l-22.52,4.05c-0.64-0.53-1.28-1.12-1.86-1.76c-0.53-0.53-1.01-1.12-1.49-1.7
		c-1.28-1.65-2.4-3.46-3.19-5.43c-0.27-0.64-0.53-1.28-0.75-1.97c-0.16-0.43-0.27-0.91-0.37-1.33c-0.05-0.11-0.05-0.16-0.05-0.27
		c-0.21-0.85-0.37-1.76-0.48-2.66c-0.16-0.91-0.21-1.86-0.21-2.82c0-4.58,1.38-9.32,4.53-13.58c2.98-4.05,4.47-8.84,4.47-13.63
		c0-4.85-1.49-9.64-4.47-13.68c-3.14-4.31-4.53-9-4.53-13.63c0-12.83,10.97-24.71,25.72-23.05c0.85,0.05,1.7,0.11,2.5,0.11
		c9.1,0,17.46-5.38,21.19-13.84c0.37-0.85,0.8-1.65,1.22-2.45c0.05-0.05,0.05-0.05,0.05-0.11c0.48-0.75,0.96-1.44,1.44-2.13
		c0.53-0.69,1.12-1.38,1.76-2.02c0.53-0.59,1.12-1.17,1.76-1.7c1.12-0.96,2.4-1.81,3.67-2.45c0.8-0.48,1.65-0.85,2.5-1.22
		c0.32-0.11,0.59-0.27,0.91-0.32C248.8,179.03,249.38,178.81,250.02,178.65z"/>
	<path class="st10" d="M323.5,294.62c-1.17,2.13-2.72,4.05-4.53,5.7l-1.12,0.96c-0.43,0.37-0.91,0.69-1.38,1.01
		c-0.75,0.53-1.49,1.01-2.34,1.38c-0.75,0.43-1.54,0.8-2.4,1.06c-0.85,0.37-1.7,0.64-2.66,0.85c-0.85,0.21-1.7,0.37-2.61,0.48
		c-0.91,0.11-1.81,0.16-2.77,0.16c-0.85,0-1.81-0.05-2.72-0.16c-0.85-0.05-1.7-0.11-2.5-0.11c-9.1,0-17.46,5.38-21.19,13.84
		c-4.05,9.16-12.62,13.79-21.19,13.79c-8.57,0-17.14-4.63-21.19-13.79c-4.1-9.26-13.63-14.8-23.69-13.74
		c-0.91,0.11-1.81,0.16-2.66,0.16c-0.75,0-1.44-0.05-2.13-0.11c-0.69-0.05-1.33-0.16-2.02-0.27c-0.48-0.11-1.01-0.21-1.49-0.32
		c-0.48-0.11-0.91-0.27-1.33-0.37c-2.88-0.91-5.48-2.4-7.67-4.26l22.52-4.05h0.05c0.32,0.05,0.53,0.05,0.85,0.05
		c0.69,0,1.44-0.05,2.18-0.11c8.2-0.91,15.97,3.62,19.33,11.13c3.3,7.51,10.28,11.29,17.25,11.29s13.95-3.78,17.25-11.29
		c3.03-6.92,9.85-11.23,17.3-11.23c0.69,0,1.33,0,2.02,0.11c12.03,1.28,20.98-8.36,20.98-18.85c0-1.65-0.21-3.3-0.69-4.95
		L323.5,294.62z"/>
	<path class="st10" d="M326.69,283.01c0,0.64,0,1.22-0.11,1.86c0,0.43-0.05,0.91-0.16,1.33c-0.11,0.85-0.27,1.7-0.48,2.56
		c0,0.11-0.05,0.27-0.11,0.37c-0.27,0.85-0.53,1.7-0.85,2.56c-0.43,1.01-0.91,1.97-1.49,2.93L312.96,273
		c-0.59-2.13-1.6-4.15-2.98-6.12c-2.45-3.35-3.67-7.24-3.67-11.13c0-3.94,1.22-7.83,3.67-11.18c9.21-12.62-0.05-30.03-15.12-30.03
		c-0.69,0-1.44,0.05-2.18,0.11c-0.69,0.11-1.33,0.11-2.02,0.11c-7.45,0-14.27-4.31-17.3-11.23c-3.3-7.51-10.28-11.29-17.25-11.29
		s-13.95,3.78-17.25,11.29c-0.8,1.86-1.92,3.57-3.25,5l14.43-29.87c0.48-0.16,0.96-0.27,1.44-0.32c0.64-0.16,1.33-0.27,1.97-0.32
		c0.85-0.11,1.76-0.16,2.66-0.16c8.57,0,17.14,4.63,21.19,13.79c3.73,8.47,12.09,13.84,21.19,13.84c0.8,0,1.65-0.05,2.5-0.11
		c0.91-0.11,1.81-0.16,2.66-0.16c18.48,0,29.87,21.3,18.53,36.84c-2.98,4.05-4.47,8.84-4.47,13.68c0,4.79,1.49,9.58,4.47,13.63
		C325.31,273.69,326.69,278.38,326.69,283.01z"/>
	<path class="st9" d="M313.65,277.95c0,10.49-8.94,20.13-20.98,18.85c-0.69-0.11-1.33-0.11-2.02-0.11c-7.45,0-14.27,4.31-17.3,11.23
		c-3.3,7.51-10.28,11.29-17.25,11.29s-13.95-3.78-17.25-11.29c-3.35-7.51-11.13-12.03-19.33-11.13c-0.75,0.05-1.49,0.11-2.18,0.11
		c-0.32,0-0.53,0-0.85-0.05h-0.05c-14.54-0.64-23.21-17.62-14.22-29.98c2.45-3.35,3.67-7.24,3.67-11.13c0-3.94-1.22-7.83-3.67-11.18
		c-2.5-3.46-3.67-7.29-3.67-11.07c0-10.49,8.94-20.13,20.98-18.85c0.69,0.11,1.33,0.11,2.02,0.11c5.43,0,10.54-2.29,14.06-6.23
		c1.33-1.44,2.45-3.14,3.25-5c3.3-7.51,10.28-11.29,17.25-11.29s13.95,3.78,17.25,11.29c3.03,6.92,9.85,11.23,17.3,11.23
		c0.69,0,1.33,0,2.02-0.11c0.75-0.05,1.49-0.11,2.18-0.11c15.07,0,24.33,17.41,15.12,30.03c-2.45,3.35-3.67,7.24-3.67,11.18
		c0,3.89,1.22,7.77,3.67,11.13c1.38,1.97,2.4,3.99,2.98,6.12C313.44,274.65,313.65,276.3,313.65,277.95z"/>
</g>
</svg>
