<?xml version="1.0" encoding="utf-8"?>
<!-- Generator: Adobe Illustrator 24.0.1, SVG Export Plug-In . SVG Version: 6.00 Build 0)  -->
<svg version="1.1" id="Capa_1" xmlns="http://www.w3.org/2000/svg" xmlns:xlink="http://www.w3.org/1999/xlink" x="0px" y="0px"
	 viewBox="0 0 512.01 121.02" style="enable-background:new 0 0 512.01 121.02;" xml:space="preserve">
<style type="text/css">
	.st0{fill:none;stroke:#1D1D1B;stroke-miterlimit:10;}
	.st1{fill:#E53328;}
	.st2{fill:url(#SVGID_1_);}
	.st3{fill:url(#SVGID_2_);}
	.st4{fill:url(#SVGID_3_);}
	.st5{fill:#0FA2B7;}
	.st6{fill:url(#SVGID_4_);}
	.st7{fill:url(#SVGID_5_);}
	.st8{fill:url(#SVGID_6_);}
	.st9{fill:none;}
	.st10{fill:#868686;}
	.st11{fill:#E8531D;}
	.st12{font-family:'CaviarDreams';}
	.st13{font-size:111.2833px;}
	.st14{letter-spacing:1;}
	.st15{font-size:112.7117px;}
</style>
<g>
	<path class="st0" d="M299.91,96.2c-0.06-0.04-0.12-0.08-0.17-0.12c0.06,0.04,0.11,0.08,0.17,0.11
		C299.91,96.19,299.91,96.2,299.91,96.2z"/>
	<path class="st1" d="M299.9,96.19c-0.06-0.03-0.11-0.07-0.17-0.11c0.06,0.04,0.12,0.08,0.17,0.12
		C299.91,96.2,299.91,96.19,299.9,96.19z"/>
	<linearGradient id="SVGID_1_" gradientUnits="userSpaceOnUse" x1="254.6773" y1="87.5314" x2="307.5951" y2="87.5314">
		<stop  offset="0" style="stop-color:#E53328"/>
		<stop  offset="0.3808" style="stop-color:#E33328"/>
		<stop  offset="0.518" style="stop-color:#DC3126"/>
		<stop  offset="0.6158" style="stop-color:#D02E24"/>
		<stop  offset="0.6949" style="stop-color:#C02B21"/>
		<stop  offset="0.7626" style="stop-color:#AA261E"/>
		<stop  offset="0.8226" style="stop-color:#8E2019"/>
		<stop  offset="0.8769" style="stop-color:#6E1813"/>
		<stop  offset="0.9268" style="stop-color:#48100D"/>
		<stop  offset="0.9711" style="stop-color:#1F0705"/>
		<stop  offset="1" style="stop-color:#000000"/>
	</linearGradient>
	<path class="st2" d="M304.26,85.43c-0.02,0.37-0.01,0.75,0.03,1.13c0.03,0.31,0.05,0.62,0.05,0.91c0,6.34-7.32,10.25-12.65,6.36
		c-1.4-1.02-3.05-1.54-4.69-1.54c-1.65,0-3.29,0.51-4.69,1.54c-1.47,1.07-3.09,1.55-4.67,1.55c-4.42,0-8.49-3.77-7.94-8.83
		c0.03-0.29,0.05-0.57,0.05-0.87c0-3.12-1.83-5.99-4.74-7.27c-0.06-0.03-0.12-0.05-0.17-0.08l-10.15-4.15
		c0.78,2.47,2.56,4.67,5.34,5.89c3.56,1.57,5.82,5.09,5.82,8.92c0,0.35-0.01,0.7-0.06,1.05c-0.68,6.22,4.32,10.83,9.73,10.83
		c1.94,0,3.92-0.59,5.72-1.9c1.71-1.25,3.74-1.88,5.76-1.88c2.02,0,4.05,0.63,5.76,1.88c3.99,2.91,8.89,2.26,12.11-0.46
		L304.26,85.43z M299.74,96.08c0.06,0.04,0.11,0.08,0.17,0.11c0.01,0.01,0.01,0.01,0.01,0.01
		C299.86,96.16,299.79,96.12,299.74,96.08z"/>
	<linearGradient id="SVGID_2_" gradientUnits="userSpaceOnUse" x1="315.4209" y1="82.4647" x2="286.4264" y2="51.2548">
		<stop  offset="0" style="stop-color:#E53328"/>
		<stop  offset="0.2892" style="stop-color:#E33328"/>
		<stop  offset="0.4309" style="stop-color:#DB3126"/>
		<stop  offset="0.5405" style="stop-color:#CE2E24"/>
		<stop  offset="0.6336" style="stop-color:#BB2A21"/>
		<stop  offset="0.7163" style="stop-color:#A3241D"/>
		<stop  offset="0.7917" style="stop-color:#851E17"/>
		<stop  offset="0.8614" style="stop-color:#621611"/>
		<stop  offset="0.9267" style="stop-color:#390D0A"/>
		<stop  offset="0.9862" style="stop-color:#0C0302"/>
		<stop  offset="1" style="stop-color:#000000"/>
	</linearGradient>
	<path class="st3" d="M319.79,71.14c0,3.61-1.94,7.22-5.81,8.93c-3.89,1.72-6.22,5.75-5.77,9.97c0.04,0.38,0.06,0.76,0.06,1.13
		c0,3.03-1.36,5.61-3.41,7.34l-0.6-13.09v-0.06c0.11-3,1.92-5.72,4.73-6.96c3.16-1.39,4.75-4.33,4.75-7.27
		c0-2.93-1.59-5.88-4.75-7.27c-2.91-1.28-4.74-4.15-4.74-7.27c0-0.29,0.01-0.57,0.05-0.87c0.55-5.06-3.52-8.83-7.94-8.83
		c-1.58,0-3.2,0.48-4.67,1.55c-0.29,0.21-0.59,0.4-0.9,0.57l10.88-7.07c4.01,1.38,7.08,5.33,6.54,10.29
		c-0.04,0.35-0.06,0.71-0.06,1.05c0,3.83,2.26,7.35,5.82,8.92C317.85,63.93,319.79,67.54,319.79,71.14z"/>
	<linearGradient id="SVGID_3_" gradientUnits="userSpaceOnUse" x1="283.6525" y1="41.5196" x2="265.7646" y2="85.4895">
		<stop  offset="0" style="stop-color:#E53328"/>
		<stop  offset="0.2584" style="stop-color:#E33228"/>
		<stop  offset="0.4" style="stop-color:#DB3126"/>
		<stop  offset="0.5133" style="stop-color:#CD2E24"/>
		<stop  offset="0.6118" style="stop-color:#B92920"/>
		<stop  offset="0.7005" style="stop-color:#A0241C"/>
		<stop  offset="0.7822" style="stop-color:#811D17"/>
		<stop  offset="0.8587" style="stop-color:#5C1510"/>
		<stop  offset="0.9294" style="stop-color:#320B09"/>
		<stop  offset="0.996" style="stop-color:#030101"/>
		<stop  offset="1" style="stop-color:#000000"/>
	</linearGradient>
	<path class="st4" d="M301.67,41.96l-10.88,7.07c-1.18,0.64-2.48,0.97-3.79,0.97c-1.65,0-3.29-0.51-4.69-1.54
		c-5.33-3.89-12.65,0.02-12.65,6.36c0,0.3,0.01,0.6,0.05,0.91c0.03,0.29,0.05,0.57,0.05,0.87c0,3.12-1.83,5.99-4.74,7.27
		c-3.16,1.39-4.75,4.33-4.75,7.27c0,2.89,1.53,5.77,4.58,7.19l-10.15-4.15c-0.32-0.98-0.48-2.01-0.48-3.04
		c0-3.61,1.94-7.21,5.81-8.92c3.56-1.57,5.82-5.09,5.82-8.92c0-0.35-0.01-0.7-0.06-1.05c-0.04-0.38-0.06-0.76-0.06-1.13
		c0-7.78,8.98-12.58,15.52-7.8c1.71,1.26,3.74,1.88,5.76,1.88c2.02,0,4.05-0.62,5.76-1.88c1.8-1.32,3.79-1.9,5.72-1.9
		C299.57,41.41,300.65,41.6,301.67,41.96z"/>
	<path class="st5" d="M297.54,63.02c0.39,0.18,0.81,0.3,1.25,0.37c0.05,0.01,0.1,0.01,0.14,0.03L297.54,63.02z"/>
	<linearGradient id="SVGID_4_" gradientUnits="userSpaceOnUse" x1="277.9875" y1="82.4686" x2="275.1984" y2="58.3705">
		<stop  offset="0" style="stop-color:#0FA2B7"/>
		<stop  offset="0.3152" style="stop-color:#0FA0B5"/>
		<stop  offset="0.4653" style="stop-color:#0E99AD"/>
		<stop  offset="0.5804" style="stop-color:#0D8EA0"/>
		<stop  offset="0.6777" style="stop-color:#0C7E8E"/>
		<stop  offset="0.7637" style="stop-color:#0A6876"/>
		<stop  offset="0.8419" style="stop-color:#074E58"/>
		<stop  offset="0.9141" style="stop-color:#042F35"/>
		<stop  offset="0.9797" style="stop-color:#010C0E"/>
		<stop  offset="1" style="stop-color:#000000"/>
	</linearGradient>
	<path class="st6" d="M287.94,85.08l-4,5.56c-0.48,0.04-0.96,0.03-1.43-0.04c-0.07-0.01-0.13-0.01-0.19-0.03
		c-0.15-0.03-0.3-0.06-0.44-0.1c-0.33-0.08-0.65-0.2-0.96-0.34c-0.12-0.06-0.25-0.12-0.37-0.19c-0.12-0.06-0.24-0.13-0.35-0.2
		c-0.08-0.05-0.17-0.1-0.26-0.17c-0.06-0.03-0.1-0.07-0.15-0.11c-0.08-0.06-0.15-0.11-0.22-0.17c-0.02-0.01-0.04-0.03-0.06-0.05
		c-0.07-0.06-0.14-0.12-0.21-0.19c-0.01-0.01-0.02-0.01-0.03-0.03c-0.1-0.09-0.19-0.19-0.28-0.29c-0.08-0.08-0.15-0.16-0.21-0.24
		c-0.06-0.06-0.1-0.12-0.14-0.17c-0.06-0.08-0.11-0.15-0.16-0.22c-0.09-0.12-0.17-0.25-0.24-0.37c-0.06-0.09-0.1-0.19-0.15-0.29
		c-0.04-0.08-0.08-0.16-0.12-0.24c-0.01,0-0.01-0.01-0.01-0.01c-0.03-0.08-0.07-0.15-0.1-0.24c-0.01-0.01-0.01-0.03-0.01-0.05
		c-0.03-0.07-0.06-0.15-0.08-0.21v-0.01c-0.06-0.14-0.09-0.27-0.13-0.42c-0.06-0.21-0.1-0.42-0.13-0.64
		c-0.19-1.28-0.8-2.42-1.67-3.29c-0.87-0.87-2.02-1.47-3.29-1.67c-1.34-0.21-2.45-0.82-3.29-1.65c-2.33-2.33-2.5-6.48,0.48-8.87
		c0.17-0.13,0.33-0.28,0.47-0.43c1.65-1.65,2.2-4.14,1.34-6.35c-0.28-0.73-0.42-1.47-0.42-2.18c0-0.12,0.01-0.24,0.01-0.35
		c0.01-0.11,0.01-0.22,0.03-0.33c0.01-0.06,0.01-0.12,0.03-0.18c0.01-0.06,0.02-0.11,0.03-0.17c0.01-0.12,0.04-0.24,0.08-0.35
		c0.03-0.11,0.06-0.21,0.09-0.32c0.03-0.1,0.06-0.21,0.1-0.31c0.06-0.17,0.14-0.35,0.22-0.53c0.02-0.03,0.03-0.06,0.06-0.1
		l2.55,6.04c0.02,0.08,0.05,0.15,0.08,0.22c0.7,1.81,0.26,3.83-1.09,5.18c-0.12,0.12-0.25,0.24-0.39,0.35
		c-2.42,1.95-2.28,5.32-0.39,7.23c0.69,0.68,1.59,1.17,2.68,1.34c1.05,0.16,1.98,0.65,2.69,1.36c0.71,0.71,1.2,1.64,1.36,2.69
		c0.62,3.97,5.46,5.45,8.2,2.71c0.12-0.13,0.25-0.27,0.37-0.42C287.85,85.19,287.89,85.13,287.94,85.08z"/>
	<linearGradient id="SVGID_5_" gradientUnits="userSpaceOnUse" x1="304.1592" y1="72.0695" x2="281.0064" y2="87.6891">
		<stop  offset="0" style="stop-color:#0FA2B7"/>
		<stop  offset="0.1356" style="stop-color:#0F9EB3"/>
		<stop  offset="0.284" style="stop-color:#0E92A5"/>
		<stop  offset="0.4384" style="stop-color:#0C7F8F"/>
		<stop  offset="0.5971" style="stop-color:#096471"/>
		<stop  offset="0.759" style="stop-color:#064149"/>
		<stop  offset="0.9214" style="stop-color:#02171A"/>
		<stop  offset="1" style="stop-color:#000000"/>
	</linearGradient>
	<path class="st7" d="M306.51,67.55c0,0.31-0.02,0.63-0.08,0.95c-0.01,0.05-0.01,0.09-0.03,0.14v0.01c-0.03,0.16-0.06,0.31-0.1,0.46
		c-0.03,0.1-0.06,0.21-0.1,0.31c-0.03,0.1-0.07,0.2-0.11,0.3c-0.13,0.35-0.31,0.69-0.53,1.01c-0.06,0.08-0.11,0.17-0.17,0.24
		c-0.06,0.08-0.12,0.16-0.18,0.24c-0.27,0.34-0.58,0.65-0.94,0.94c-0.17,0.13-0.33,0.28-0.47,0.43c-1.65,1.65-2.2,4.14-1.34,6.35
		c0.93,2.4,0.22,4.8-1.34,6.35c-1.56,1.56-3.95,2.28-6.35,1.34c-2.42-0.93-5.16-0.2-6.78,1.81c-0.15,0.18-0.3,0.35-0.46,0.51
		c-0.15,0.15-0.3,0.28-0.46,0.41c-0.12,0.1-0.24,0.19-0.36,0.27c-0.12,0.08-0.24,0.16-0.37,0.24c-0.17,0.1-0.35,0.19-0.52,0.27
		c-0.15,0.07-0.3,0.13-0.46,0.19c-0.11,0.04-0.22,0.08-0.33,0.11c-0.06,0.02-0.12,0.03-0.18,0.05c-0.12,0.03-0.25,0.06-0.37,0.08
		c-0.05,0.01-0.1,0.02-0.16,0.03c-0.13,0.02-0.26,0.03-0.39,0.05h-0.01l4-5.56l0.04-0.05c1.35-1.48,3.47-2,5.35-1.27
		c1.97,0.77,3.92,0.18,5.18-1.09c1.27-1.27,1.85-3.22,1.09-5.18c-0.7-1.81-0.26-3.83,1.09-5.18c0.12-0.12,0.25-0.24,0.39-0.35
		c2.42-1.95,2.28-5.32,0.39-7.23c-0.45-0.45-1-0.82-1.63-1.05l6.31,1.8v0.01c0.08,0.19,0.13,0.39,0.18,0.6
		c0.03,0.14,0.06,0.27,0.09,0.41c0.03,0.15,0.05,0.31,0.06,0.46c0.01,0.04,0.01,0.09,0.01,0.14
		C306.5,67.25,306.51,67.4,306.51,67.55z"/>
	<linearGradient id="SVGID_6_" gradientUnits="userSpaceOnUse" x1="275.5099" y1="48.5668" x2="298.6989" y2="73.9682">
		<stop  offset="0" style="stop-color:#0FA2B7"/>
		<stop  offset="0.2604" style="stop-color:#0FA0B5"/>
		<stop  offset="0.4119" style="stop-color:#0E99AC"/>
		<stop  offset="0.5355" style="stop-color:#0D8C9E"/>
		<stop  offset="0.6441" style="stop-color:#0B7A8A"/>
		<stop  offset="0.7428" style="stop-color:#096370"/>
		<stop  offset="0.8345" style="stop-color:#074750"/>
		<stop  offset="0.9188" style="stop-color:#04262B"/>
		<stop  offset="0.9986" style="stop-color:#000101"/>
		<stop  offset="1" style="stop-color:#000000"/>
	</linearGradient>
	<path class="st8" d="M306.15,65.48l-6.31-1.8c-0.28-0.12-0.59-0.21-0.91-0.26l-1.39-0.4c-0.54-0.24-1.02-0.57-1.43-0.98
		c-0.71-0.71-1.2-1.64-1.36-2.69c-0.62-3.97-5.46-5.45-8.2-2.71c-0.12,0.13-0.25,0.27-0.37,0.42c-0.11,0.14-0.23,0.27-0.35,0.39
		c-1.35,1.34-3.38,1.79-5.18,1.09c-1.97-0.77-3.92-0.18-5.18,1.09c-1.23,1.22-1.81,3.07-1.17,4.96l-2.55-6.04v-0.01
		c0.07-0.14,0.15-0.27,0.22-0.4c0.05-0.08,0.1-0.16,0.16-0.24c0.05-0.08,0.1-0.15,0.16-0.23c0,0,0-0.01,0.01-0.01
		c0.08-0.1,0.16-0.2,0.24-0.3c0.1-0.12,0.21-0.24,0.32-0.35c1.56-1.56,3.95-2.28,6.35-1.34c2.21,0.86,4.7,0.31,6.35-1.34
		c0.15-0.15,0.29-0.3,0.43-0.48c0.15-0.18,0.3-0.35,0.46-0.51c3.36-3.35,9.3-1.55,10.05,3.32c0.19,1.28,0.8,2.42,1.67,3.29
		c0.87,0.87,2.01,1.47,3.29,1.67c1.34,0.21,2.45,0.82,3.29,1.65c0.14,0.14,0.28,0.29,0.4,0.44c0.12,0.16,0.24,0.32,0.35,0.48
		c0.08,0.13,0.17,0.26,0.24,0.41c0.06,0.11,0.12,0.23,0.17,0.34c0.04,0.08,0.08,0.16,0.1,0.24c0.03,0.06,0.06,0.12,0.08,0.19
		C306.12,65.41,306.13,65.45,306.15,65.48z"/>
	<path class="st9" d="M298.93,63.42l0.91,0.26C299.56,63.56,299.25,63.47,298.93,63.42z"/>
	<path class="st10" d="M286.21,61.13l-1.88,3.88c-0.46,0.51-1.12,0.81-1.83,0.81c-0.09,0-0.17,0-0.26-0.01
		c-1.56-0.17-2.73,1.09-2.73,2.45c0,0.49,0.15,0.99,0.48,1.44c0.32,0.44,0.48,0.94,0.48,1.45c0,0.51-0.16,1.01-0.48,1.45
		c-1.17,1.61-0.04,3.81,1.85,3.9l-2.93,0.53c-0.08-0.07-0.17-0.15-0.24-0.23c-0.07-0.07-0.13-0.15-0.19-0.22
		c-0.17-0.21-0.31-0.45-0.42-0.71c-0.03-0.08-0.07-0.17-0.1-0.26c-0.02-0.06-0.03-0.12-0.05-0.17c-0.01-0.01-0.01-0.02-0.01-0.03
		c-0.03-0.11-0.05-0.23-0.06-0.35c-0.02-0.12-0.03-0.24-0.03-0.37c0-0.6,0.18-1.21,0.59-1.77c0.39-0.53,0.58-1.15,0.58-1.77
		c0-0.63-0.19-1.25-0.58-1.78c-0.41-0.56-0.59-1.17-0.59-1.77c0-1.67,1.43-3.21,3.34-3c0.11,0.01,0.22,0.01,0.33,0.01
		c1.18,0,2.27-0.7,2.75-1.8c0.05-0.11,0.1-0.21,0.16-0.32c0.01-0.01,0.01-0.01,0.01-0.01c0.06-0.1,0.12-0.19,0.19-0.28
		c0.07-0.09,0.15-0.18,0.23-0.26c0.07-0.08,0.15-0.15,0.23-0.22c0.15-0.12,0.31-0.24,0.48-0.32c0.1-0.06,0.21-0.11,0.33-0.16
		c0.04-0.01,0.08-0.03,0.12-0.04C286.05,61.18,286.12,61.15,286.21,61.13z"/>
	<path class="st10" d="M295.76,76.2c-0.15,0.28-0.35,0.53-0.59,0.74l-0.15,0.12c-0.06,0.05-0.12,0.09-0.18,0.13
		c-0.1,0.07-0.19,0.13-0.3,0.18c-0.1,0.06-0.2,0.1-0.31,0.14c-0.11,0.05-0.22,0.08-0.35,0.11c-0.11,0.03-0.22,0.05-0.34,0.06
		c-0.12,0.01-0.24,0.02-0.36,0.02c-0.11,0-0.24-0.01-0.35-0.02c-0.11-0.01-0.22-0.01-0.33-0.01c-1.18,0-2.27,0.7-2.75,1.8
		c-0.53,1.19-1.64,1.79-2.75,1.79c-1.11,0-2.23-0.6-2.75-1.79c-0.53-1.2-1.77-1.92-3.08-1.79c-0.12,0.01-0.24,0.02-0.35,0.02
		c-0.1,0-0.19-0.01-0.28-0.01s-0.17-0.02-0.26-0.03c-0.06-0.01-0.13-0.03-0.19-0.04c-0.06-0.01-0.12-0.03-0.17-0.05
		c-0.37-0.12-0.71-0.31-1-0.55l2.93-0.53h0.01c0.04,0.01,0.07,0.01,0.11,0.01c0.09,0,0.19-0.01,0.28-0.01
		c1.07-0.12,2.08,0.47,2.51,1.45c0.43,0.98,1.34,1.47,2.24,1.47c0.91,0,1.81-0.49,2.24-1.47c0.39-0.9,1.28-1.46,2.25-1.46
		c0.09,0,0.17,0,0.26,0.01c1.56,0.17,2.73-1.09,2.73-2.45c0-0.21-0.03-0.43-0.09-0.64L295.76,76.2z"/>
	<path class="st10" d="M296.17,74.69c0,0.08,0,0.16-0.01,0.24c0,0.06-0.01,0.12-0.02,0.17c-0.01,0.11-0.03,0.22-0.06,0.33
		c0,0.01-0.01,0.03-0.01,0.05c-0.03,0.11-0.07,0.22-0.11,0.33c-0.06,0.13-0.12,0.26-0.19,0.38l-1.37-2.81
		c-0.08-0.28-0.21-0.54-0.39-0.8c-0.32-0.44-0.48-0.94-0.48-1.45c0-0.51,0.16-1.02,0.48-1.45c1.2-1.64-0.01-3.9-1.97-3.9
		c-0.09,0-0.19,0.01-0.28,0.01c-0.09,0.01-0.17,0.01-0.26,0.01c-0.97,0-1.86-0.56-2.25-1.46c-0.43-0.98-1.34-1.47-2.24-1.47
		c-0.91,0-1.81,0.49-2.24,1.47c-0.1,0.24-0.25,0.46-0.42,0.65l1.88-3.88c0.06-0.02,0.12-0.03,0.19-0.04
		c0.08-0.02,0.17-0.03,0.26-0.04c0.11-0.01,0.23-0.02,0.35-0.02c1.11,0,2.23,0.6,2.75,1.79c0.48,1.1,1.57,1.8,2.75,1.8
		c0.1,0,0.21-0.01,0.33-0.01c0.12-0.01,0.24-0.02,0.35-0.02c2.4,0,3.88,2.77,2.41,4.79c-0.39,0.53-0.58,1.15-0.58,1.78
		c0,0.62,0.19,1.25,0.58,1.77C295.99,73.48,296.17,74.09,296.17,74.69z"/>
	<path class="st9" d="M294.48,74.04c0,1.36-1.16,2.62-2.73,2.45c-0.09-0.01-0.17-0.01-0.26-0.01c-0.97,0-1.86,0.56-2.25,1.46
		c-0.43,0.98-1.34,1.47-2.24,1.47c-0.91,0-1.81-0.49-2.24-1.47c-0.44-0.98-1.45-1.56-2.51-1.45c-0.1,0.01-0.19,0.01-0.28,0.01
		c-0.04,0-0.07,0-0.11-0.01h-0.01c-1.89-0.08-3.02-2.29-1.85-3.9c0.32-0.44,0.48-0.94,0.48-1.45c0-0.51-0.16-1.02-0.48-1.45
		c-0.33-0.45-0.48-0.95-0.48-1.44c0-1.36,1.16-2.62,2.73-2.45c0.09,0.01,0.17,0.01,0.26,0.01c0.71,0,1.37-0.3,1.83-0.81
		c0.17-0.19,0.32-0.41,0.42-0.65c0.43-0.98,1.34-1.47,2.24-1.47c0.91,0,1.81,0.49,2.24,1.47c0.39,0.9,1.28,1.46,2.25,1.46
		c0.09,0,0.17,0,0.26-0.01c0.1-0.01,0.19-0.01,0.28-0.01c1.96,0,3.16,2.26,1.97,3.9c-0.32,0.44-0.48,0.94-0.48,1.45
		c0,0.51,0.16,1.01,0.48,1.45c0.18,0.26,0.31,0.52,0.39,0.8C294.45,73.61,294.48,73.82,294.48,74.04z"/>
</g>
<text transform="matrix(1 0 0 1 0 99.3564)" class="st11 st12 st13 st14">carb</text>
<text transform="matrix(1 0 0 1 323.6792 100.3838)" class="st11 st12 st15 st14">ELN</text>
</svg>
