<?xml version="1.0" encoding="utf-8"?>
<!-- Generator: Adobe Illustrator 24.0.1, SVG Export Plug-In . SVG Version: 6.00 Build 0)  -->
<svg version="1.1" id="Capa_1" xmlns="http://www.w3.org/2000/svg" xmlns:xlink="http://www.w3.org/1999/xlink" x="0px" y="0px"
	 viewBox="0 0 512 512" style="enable-background:new 0 0 512 512;" xml:space="preserve">
<style type="text/css">
	.st0{fill:none;stroke:#1D1D1B;stroke-miterlimit:10;}
	.st1{fill:#E53328;}
	.st2{fill:url(#SVGID_1_);}
	.st3{fill:url(#SVGID_2_);}
	.st4{fill:url(#SVGID_3_);}
	.st5{fill:#0FA2B7;}
	.st6{fill:url(#SVGID_4_);}
	.st7{fill:url(#SVGID_5_);}
	.st8{fill:url(#SVGID_6_);}
	.st9{fill:none;}
	.st10{fill:#868686;}
	.st11{fill:#1D1D1B;}
	.st12{font-family:'CaviarDreams-Bold';}
	.st13{font-size:101.7618px;}
	.st14{font-size:103.6111px;}
</style>
<g>
	<path class="st0" d="M304,282.46c-0.08-0.06-0.16-0.12-0.24-0.17c0.08,0.06,0.15,0.11,0.23,0.15C304,282.45,304,282.46,304,282.46z
		"/>
	<path class="st1" d="M303.99,282.44c-0.08-0.05-0.15-0.1-0.23-0.15c0.08,0.06,0.16,0.12,0.24,0.17
		C304,282.46,304,282.45,303.99,282.44z"/>
	<linearGradient id="SVGID_1_" gradientUnits="userSpaceOnUse" x1="241.2874" y1="270.4367" x2="314.6543" y2="270.4367">
		<stop  offset="0" style="stop-color:#E53328"/>
		<stop  offset="0.3808" style="stop-color:#E33328"/>
		<stop  offset="0.518" style="stop-color:#DC3126"/>
		<stop  offset="0.6158" style="stop-color:#D02E24"/>
		<stop  offset="0.6949" style="stop-color:#C02B21"/>
		<stop  offset="0.7626" style="stop-color:#AA261E"/>
		<stop  offset="0.8226" style="stop-color:#8E2019"/>
		<stop  offset="0.8769" style="stop-color:#6E1813"/>
		<stop  offset="0.9268" style="stop-color:#48100D"/>
		<stop  offset="0.9711" style="stop-color:#1F0705"/>
		<stop  offset="1" style="stop-color:#000000"/>
	</linearGradient>
	<path class="st2" d="M310.03,267.52c-0.03,0.52-0.01,1.05,0.05,1.56c0.05,0.43,0.07,0.85,0.07,1.27c0,8.79-10.15,14.21-17.54,8.82
		c-1.94-1.42-4.22-2.13-6.51-2.13s-4.57,0.71-6.51,2.13c-2.03,1.49-4.28,2.15-6.47,2.15c-6.12,0-11.77-5.22-11.01-12.24
		c0.05-0.4,0.07-0.8,0.07-1.2c0-4.33-2.54-8.31-6.57-10.09c-0.08-0.04-0.16-0.07-0.24-0.12l-14.08-5.76
		c1.08,3.43,3.55,6.47,7.4,8.17c4.94,2.18,8.07,7.06,8.07,12.37c0,0.48-0.02,0.97-0.08,1.46c-0.94,8.62,5.99,15.02,13.49,15.02
		c2.69,0,5.44-0.82,7.94-2.64c2.37-1.74,5.18-2.61,7.98-2.61c2.8,0,5.61,0.87,7.98,2.61c5.53,4.04,12.32,3.14,16.78-0.63
		L310.03,267.52z M303.76,282.28c0.08,0.06,0.15,0.11,0.23,0.15c0.01,0.01,0.01,0.02,0.01,0.02
		C303.92,282.4,303.84,282.34,303.76,282.28z"/>
	<linearGradient id="SVGID_2_" gradientUnits="userSpaceOnUse" x1="325.5042" y1="263.4121" x2="285.3053" y2="220.1418">
		<stop  offset="0" style="stop-color:#E53328"/>
		<stop  offset="0.2892" style="stop-color:#E33328"/>
		<stop  offset="0.4309" style="stop-color:#DB3126"/>
		<stop  offset="0.5405" style="stop-color:#CE2E24"/>
		<stop  offset="0.6336" style="stop-color:#BB2A21"/>
		<stop  offset="0.7163" style="stop-color:#A3241D"/>
		<stop  offset="0.7917" style="stop-color:#851E17"/>
		<stop  offset="0.8614" style="stop-color:#621611"/>
		<stop  offset="0.9267" style="stop-color:#390D0A"/>
		<stop  offset="0.9862" style="stop-color:#0C0302"/>
		<stop  offset="1" style="stop-color:#000000"/>
	</linearGradient>
	<path class="st3" d="M331.56,247.72c0,5.01-2.69,10.01-8.06,12.38c-5.39,2.38-8.63,7.97-7.99,13.83c0.06,0.53,0.09,1.06,0.09,1.56
		c0,4.2-1.89,7.77-4.73,10.18l-0.83-18.15v-0.08c0.15-4.16,2.66-7.93,6.55-9.64c4.39-1.93,6.58-6.01,6.58-10.09
		c0-4.07-2.2-8.15-6.58-10.08c-4.03-1.78-6.57-5.76-6.57-10.09c0-0.4,0.02-0.8,0.07-1.2c0.77-7.02-4.88-12.24-11.01-12.24
		c-2.19,0-4.43,0.66-6.47,2.15c-0.4,0.3-0.82,0.56-1.25,0.79l15.09-9.8c5.56,1.92,9.82,7.39,9.07,14.26
		c-0.06,0.49-0.08,0.98-0.08,1.46c0,5.31,3.13,10.19,8.07,12.37C328.87,237.72,331.56,242.72,331.56,247.72z"/>
	<linearGradient id="SVGID_3_" gradientUnits="userSpaceOnUse" x1="281.4595" y1="206.6444" x2="256.6591" y2="267.6057">
		<stop  offset="0" style="stop-color:#E53328"/>
		<stop  offset="0.2584" style="stop-color:#E33228"/>
		<stop  offset="0.4" style="stop-color:#DB3126"/>
		<stop  offset="0.5133" style="stop-color:#CD2E24"/>
		<stop  offset="0.6118" style="stop-color:#B92920"/>
		<stop  offset="0.7005" style="stop-color:#A0241C"/>
		<stop  offset="0.7822" style="stop-color:#811D17"/>
		<stop  offset="0.8587" style="stop-color:#5C1510"/>
		<stop  offset="0.9294" style="stop-color:#320B09"/>
		<stop  offset="0.996" style="stop-color:#030101"/>
		<stop  offset="1" style="stop-color:#000000"/>
	</linearGradient>
	<path class="st4" d="M306.44,207.26l-15.09,9.8c-1.63,0.89-3.45,1.34-5.26,1.34c-2.28,0-4.57-0.71-6.51-2.13
		c-7.39-5.39-17.54,0.03-17.54,8.82c0,0.41,0.02,0.83,0.07,1.27c0.05,0.4,0.07,0.8,0.07,1.2c0,4.33-2.54,8.31-6.57,10.09
		c-4.39,1.93-6.58,6.01-6.58,10.08c0,4,2.12,8,6.34,9.97l-14.08-5.76c-0.44-1.36-0.66-2.78-0.66-4.21c0-5,2.69-10,8.06-12.37
		c4.94-2.18,8.07-7.06,8.07-12.37c0-0.48-0.02-0.97-0.08-1.46c-0.06-0.53-0.09-1.06-0.09-1.56c0-10.79,12.46-17.44,21.52-10.82
		c2.37,1.75,5.18,2.61,7.98,2.61c2.8,0,5.61-0.86,7.98-2.61c2.5-1.82,5.25-2.64,7.94-2.64C303.53,206.5,305.03,206.76,306.44,207.26
		z"/>
	<path class="st5" d="M300.72,236.45c0.55,0.25,1.12,0.42,1.74,0.52c0.07,0.01,0.13,0.02,0.19,0.04L300.72,236.45z"/>
	<linearGradient id="SVGID_4_" gradientUnits="userSpaceOnUse" x1="273.6054" y1="263.4175" x2="269.7384" y2="230.0072">
		<stop  offset="0" style="stop-color:#0FA2B7"/>
		<stop  offset="0.3152" style="stop-color:#0FA0B5"/>
		<stop  offset="0.4653" style="stop-color:#0E99AD"/>
		<stop  offset="0.5804" style="stop-color:#0D8EA0"/>
		<stop  offset="0.6777" style="stop-color:#0C7E8E"/>
		<stop  offset="0.7637" style="stop-color:#0A6876"/>
		<stop  offset="0.8419" style="stop-color:#074E58"/>
		<stop  offset="0.9141" style="stop-color:#042F35"/>
		<stop  offset="0.9797" style="stop-color:#010C0E"/>
		<stop  offset="1" style="stop-color:#000000"/>
	</linearGradient>
	<path class="st6" d="M287.41,267.03l-5.55,7.71c-0.67,0.06-1.33,0.04-1.99-0.06c-0.1-0.01-0.18-0.02-0.27-0.04
		c-0.21-0.04-0.41-0.09-0.61-0.13c-0.46-0.12-0.9-0.28-1.33-0.47c-0.17-0.08-0.35-0.16-0.52-0.26c-0.16-0.09-0.33-0.18-0.49-0.28
		c-0.12-0.07-0.24-0.14-0.36-0.23c-0.08-0.05-0.14-0.1-0.21-0.15c-0.11-0.08-0.2-0.15-0.31-0.24c-0.03-0.02-0.06-0.04-0.09-0.07
		c-0.1-0.08-0.19-0.16-0.29-0.26c-0.02-0.01-0.03-0.02-0.04-0.04c-0.13-0.12-0.27-0.26-0.39-0.4c-0.11-0.11-0.2-0.22-0.3-0.34
		c-0.08-0.08-0.13-0.16-0.19-0.24c-0.08-0.11-0.15-0.2-0.22-0.31c-0.12-0.16-0.23-0.35-0.34-0.52c-0.08-0.12-0.14-0.26-0.21-0.4
		c-0.06-0.11-0.12-0.22-0.16-0.34c-0.01,0-0.01-0.01-0.01-0.02c-0.05-0.11-0.1-0.21-0.13-0.33c-0.01-0.02-0.02-0.04-0.02-0.07
		c-0.05-0.1-0.09-0.2-0.12-0.3v-0.01c-0.08-0.19-0.12-0.37-0.18-0.58c-0.08-0.29-0.13-0.59-0.18-0.88
		c-0.27-1.78-1.11-3.36-2.31-4.57c-1.21-1.21-2.8-2.04-4.57-2.31c-1.86-0.3-3.4-1.13-4.56-2.28c-3.23-3.23-3.46-8.98,0.66-12.29
		c0.23-0.18,0.45-0.38,0.65-0.59c2.29-2.28,3.05-5.74,1.86-8.81c-0.39-1.02-0.58-2.04-0.58-3.02c0-0.16,0.01-0.33,0.02-0.49
		c0.01-0.15,0.02-0.31,0.04-0.46c0.01-0.09,0.02-0.16,0.04-0.25c0.01-0.08,0.03-0.15,0.04-0.24c0.02-0.16,0.06-0.33,0.11-0.49
		c0.04-0.15,0.08-0.3,0.12-0.44c0.04-0.14,0.09-0.29,0.14-0.43c0.09-0.24,0.19-0.49,0.31-0.73c0.03-0.05,0.05-0.09,0.08-0.13
		l3.54,8.38c0.03,0.11,0.07,0.2,0.11,0.31c0.97,2.5,0.36,5.32-1.52,7.18c-0.17,0.17-0.35,0.34-0.54,0.49
		c-3.36,2.7-3.17,7.38-0.54,10.02c0.95,0.94,2.2,1.62,3.71,1.86c1.45,0.22,2.74,0.9,3.72,1.88c0.99,0.99,1.67,2.27,1.89,3.72
		c0.85,5.51,7.57,7.55,11.36,3.76c0.17-0.18,0.35-0.37,0.51-0.58C287.28,267.19,287.34,267.11,287.41,267.03z"/>
	<linearGradient id="SVGID_5_" gradientUnits="userSpaceOnUse" x1="309.8907" y1="248.9998" x2="277.7909" y2="270.6553">
		<stop  offset="0" style="stop-color:#0FA2B7"/>
		<stop  offset="0.1356" style="stop-color:#0F9EB3"/>
		<stop  offset="0.284" style="stop-color:#0E92A5"/>
		<stop  offset="0.4384" style="stop-color:#0C7F8F"/>
		<stop  offset="0.5971" style="stop-color:#096471"/>
		<stop  offset="0.759" style="stop-color:#064149"/>
		<stop  offset="0.9214" style="stop-color:#02171A"/>
		<stop  offset="1" style="stop-color:#000000"/>
	</linearGradient>
	<path class="st7" d="M313.15,242.74c0,0.43-0.03,0.87-0.11,1.31c-0.01,0.07-0.02,0.12-0.04,0.19v0.01
		c-0.04,0.22-0.09,0.43-0.14,0.64c-0.04,0.14-0.09,0.29-0.13,0.43c-0.05,0.13-0.1,0.28-0.15,0.41c-0.18,0.48-0.43,0.95-0.73,1.4
		c-0.08,0.12-0.15,0.23-0.23,0.34c-0.08,0.12-0.16,0.22-0.25,0.33c-0.37,0.47-0.81,0.9-1.31,1.31c-0.23,0.18-0.45,0.38-0.65,0.6
		c-2.29,2.28-3.05,5.74-1.86,8.81c1.3,3.33,0.31,6.65-1.85,8.8c-2.16,2.16-5.47,3.16-8.81,1.86c-3.35-1.3-7.15-0.28-9.4,2.51
		c-0.2,0.25-0.41,0.49-0.63,0.71c-0.2,0.2-0.41,0.39-0.63,0.57c-0.16,0.13-0.33,0.26-0.5,0.37c-0.16,0.12-0.34,0.22-0.51,0.33
		c-0.24,0.14-0.48,0.27-0.72,0.37c-0.21,0.1-0.42,0.18-0.63,0.26c-0.15,0.06-0.31,0.11-0.46,0.15c-0.09,0.03-0.16,0.05-0.25,0.07
		c-0.17,0.05-0.35,0.09-0.51,0.12c-0.07,0.01-0.14,0.03-0.22,0.04c-0.18,0.03-0.36,0.05-0.54,0.07h-0.01l5.55-7.71l0.06-0.07
		c1.87-2.05,4.82-2.77,7.42-1.77c2.73,1.07,5.43,0.25,7.19-1.51c1.76-1.76,2.56-4.46,1.51-7.18c-0.97-2.5-0.36-5.32,1.52-7.18
		c0.17-0.17,0.35-0.34,0.54-0.49c3.36-2.7,3.17-7.38,0.54-10.02c-0.62-0.62-1.38-1.13-2.26-1.46l8.74,2.5v0.01
		c0.11,0.27,0.18,0.55,0.25,0.83c0.05,0.19,0.09,0.37,0.12,0.57c0.04,0.21,0.07,0.43,0.09,0.64c0.01,0.06,0.01,0.12,0.01,0.19
		C313.14,242.31,313.15,242.52,313.15,242.74z"/>
	<linearGradient id="SVGID_6_" gradientUnits="userSpaceOnUse" x1="270.1704" y1="216.415" x2="302.3203" y2="251.6322">
		<stop  offset="0" style="stop-color:#0FA2B7"/>
		<stop  offset="0.2604" style="stop-color:#0FA0B5"/>
		<stop  offset="0.4119" style="stop-color:#0E99AC"/>
		<stop  offset="0.5355" style="stop-color:#0D8C9E"/>
		<stop  offset="0.6441" style="stop-color:#0B7A8A"/>
		<stop  offset="0.7428" style="stop-color:#096370"/>
		<stop  offset="0.8345" style="stop-color:#074750"/>
		<stop  offset="0.9188" style="stop-color:#04262B"/>
		<stop  offset="0.9986" style="stop-color:#000101"/>
		<stop  offset="1" style="stop-color:#000000"/>
	</linearGradient>
	<path class="st8" d="M312.65,239.87l-8.74-2.5c-0.39-0.16-0.82-0.29-1.26-0.36l-1.93-0.56c-0.75-0.33-1.42-0.8-1.99-1.36
		c-0.99-0.99-1.67-2.27-1.89-3.72c-0.85-5.51-7.57-7.55-11.36-3.76c-0.17,0.18-0.35,0.37-0.51,0.58c-0.15,0.19-0.32,0.37-0.49,0.55
		c-1.87,1.86-4.68,2.49-7.18,1.52c-2.73-1.07-5.43-0.25-7.18,1.51c-1.7,1.69-2.51,4.26-1.62,6.87l-3.54-8.38v-0.01
		c0.1-0.19,0.2-0.37,0.31-0.56c0.07-0.11,0.14-0.22,0.22-0.33c0.07-0.11,0.14-0.21,0.22-0.32c0,0,0-0.01,0.01-0.01
		c0.11-0.14,0.22-0.28,0.34-0.41c0.14-0.16,0.29-0.33,0.44-0.48c2.16-2.16,5.47-3.16,8.81-1.86c3.07,1.19,6.52,0.43,8.81-1.85
		c0.2-0.21,0.4-0.42,0.59-0.66c0.2-0.25,0.41-0.49,0.63-0.71c4.65-4.64,12.89-2.15,13.93,4.61c0.27,1.78,1.11,3.36,2.31,4.57
		c1.21,1.21,2.79,2.04,4.57,2.31c1.86,0.3,3.4,1.13,4.56,2.28c0.19,0.19,0.38,0.4,0.56,0.61c0.17,0.22,0.34,0.44,0.49,0.67
		c0.12,0.18,0.23,0.36,0.34,0.57c0.09,0.15,0.16,0.32,0.24,0.47c0.06,0.11,0.11,0.22,0.14,0.33c0.04,0.09,0.08,0.17,0.11,0.26
		C312.61,239.77,312.63,239.82,312.65,239.87z"/>
	<path class="st9" d="M302.65,237.01l1.26,0.36C303.51,237.21,303.09,237.08,302.65,237.01z"/>
	<path class="st10" d="M285,233.83l-2.6,5.38c-0.63,0.71-1.55,1.12-2.53,1.12c-0.12,0-0.24,0-0.36-0.02
		c-2.17-0.23-3.78,1.51-3.78,3.4c0,0.68,0.21,1.37,0.66,2c0.44,0.6,0.66,1.31,0.66,2.02c0,0.7-0.22,1.4-0.66,2.01
		c-1.62,2.23-0.06,5.29,2.56,5.4l-4.06,0.73c-0.12-0.1-0.23-0.2-0.34-0.32c-0.1-0.1-0.18-0.2-0.27-0.31
		c-0.23-0.3-0.43-0.62-0.58-0.98c-0.05-0.12-0.1-0.23-0.13-0.36c-0.03-0.08-0.05-0.16-0.07-0.24c-0.01-0.02-0.01-0.03-0.01-0.05
		c-0.04-0.15-0.07-0.32-0.09-0.48c-0.03-0.16-0.04-0.34-0.04-0.51c0-0.83,0.25-1.68,0.82-2.45c0.54-0.73,0.81-1.59,0.81-2.46
		c0-0.87-0.27-1.74-0.81-2.47c-0.57-0.78-0.82-1.62-0.82-2.46c0-2.31,1.98-4.45,4.64-4.16c0.15,0.01,0.31,0.02,0.45,0.02
		c1.64,0,3.15-0.97,3.82-2.5c0.07-0.15,0.14-0.3,0.22-0.44c0.01-0.01,0.01-0.01,0.01-0.02c0.09-0.13,0.17-0.26,0.26-0.38
		c0.1-0.12,0.2-0.25,0.32-0.36c0.1-0.11,0.2-0.21,0.32-0.31c0.2-0.17,0.43-0.33,0.66-0.44c0.14-0.09,0.3-0.15,0.45-0.22
		c0.06-0.02,0.11-0.05,0.16-0.06C284.78,233.9,284.88,233.86,285,233.83z"/>
	<path class="st10" d="M298.24,254.73c-0.21,0.38-0.49,0.73-0.82,1.03l-0.2,0.17c-0.08,0.07-0.16,0.12-0.25,0.18
		c-0.13,0.1-0.27,0.18-0.42,0.25c-0.13,0.08-0.28,0.14-0.43,0.19c-0.15,0.07-0.31,0.12-0.48,0.15c-0.15,0.04-0.31,0.07-0.47,0.09
		c-0.16,0.02-0.33,0.03-0.5,0.03c-0.15,0-0.33-0.01-0.49-0.03c-0.15-0.01-0.31-0.02-0.45-0.02c-1.64,0-3.15,0.97-3.82,2.5
		c-0.73,1.65-2.27,2.49-3.82,2.49c-1.55,0-3.09-0.83-3.82-2.49c-0.74-1.67-2.46-2.67-4.27-2.48c-0.16,0.02-0.33,0.03-0.48,0.03
		c-0.13,0-0.26-0.01-0.38-0.02s-0.24-0.03-0.36-0.05c-0.09-0.02-0.18-0.04-0.27-0.06c-0.09-0.02-0.16-0.05-0.24-0.07
		c-0.52-0.16-0.99-0.43-1.38-0.77l4.06-0.73h0.01c0.06,0.01,0.1,0.01,0.15,0.01c0.12,0,0.26-0.01,0.39-0.02
		c1.48-0.16,2.88,0.65,3.48,2.01c0.59,1.35,1.85,2.03,3.11,2.03s2.51-0.68,3.11-2.03c0.55-1.25,1.78-2.02,3.12-2.02
		c0.12,0,0.24,0,0.36,0.02c2.17,0.23,3.78-1.51,3.78-3.4c0-0.3-0.04-0.59-0.12-0.89L298.24,254.73z"/>
	<path class="st10" d="M298.82,252.64c0,0.12,0,0.22-0.02,0.34c0,0.08-0.01,0.16-0.03,0.24c-0.02,0.15-0.05,0.31-0.09,0.46
		c0,0.02-0.01,0.05-0.02,0.07c-0.05,0.15-0.1,0.31-0.15,0.46c-0.08,0.18-0.16,0.36-0.27,0.53l-1.9-3.9
		c-0.11-0.38-0.29-0.75-0.54-1.1c-0.44-0.6-0.66-1.31-0.66-2.01c0-0.71,0.22-1.41,0.66-2.02c1.66-2.27-0.01-5.41-2.73-5.41
		c-0.12,0-0.26,0.01-0.39,0.02c-0.12,0.02-0.24,0.02-0.36,0.02c-1.34,0-2.57-0.78-3.12-2.02c-0.59-1.35-1.85-2.03-3.11-2.03
		s-2.51,0.68-3.11,2.03c-0.14,0.34-0.35,0.64-0.59,0.9l2.6-5.38c0.09-0.03,0.17-0.05,0.26-0.06c0.12-0.03,0.24-0.05,0.36-0.06
		c0.15-0.02,0.32-0.03,0.48-0.03c1.55,0,3.09,0.83,3.82,2.49c0.67,1.53,2.18,2.5,3.82,2.5c0.14,0,0.3-0.01,0.45-0.02
		c0.16-0.02,0.33-0.03,0.48-0.03c3.33,0,5.38,3.84,3.34,6.64c-0.54,0.73-0.81,1.59-0.81,2.47c0,0.86,0.27,1.73,0.81,2.46
		C298.57,250.96,298.82,251.8,298.82,252.64z"/>
	<path class="st9" d="M296.47,251.73c0,1.89-1.61,3.63-3.78,3.4c-0.12-0.02-0.24-0.02-0.36-0.02c-1.34,0-2.57,0.78-3.12,2.02
		c-0.59,1.35-1.85,2.03-3.11,2.03s-2.51-0.68-3.11-2.03c-0.6-1.35-2.01-2.17-3.48-2.01c-0.13,0.01-0.27,0.02-0.39,0.02
		c-0.06,0-0.1,0-0.15-0.01h-0.01c-2.62-0.12-4.18-3.18-2.56-5.4c0.44-0.6,0.66-1.31,0.66-2.01c0-0.71-0.22-1.41-0.66-2.02
		c-0.45-0.62-0.66-1.31-0.66-2c0-1.89,1.61-3.63,3.78-3.4c0.12,0.02,0.24,0.02,0.36,0.02c0.98,0,1.9-0.41,2.53-1.12
		c0.24-0.26,0.44-0.57,0.59-0.9c0.59-1.35,1.85-2.03,3.11-2.03s2.51,0.68,3.11,2.03c0.55,1.25,1.78,2.02,3.12,2.02
		c0.12,0,0.24,0,0.36-0.02c0.13-0.01,0.27-0.02,0.39-0.02c2.72,0,4.39,3.14,2.73,5.41c-0.44,0.6-0.66,1.31-0.66,2.02
		c0,0.7,0.22,1.4,0.66,2.01c0.25,0.36,0.43,0.72,0.54,1.1C296.43,251.13,296.47,251.43,296.47,251.73z"/>
</g>
<text transform="matrix(1 0 0 1 4.2461 287.1094)" class="st11 st12 st13">carb</text>
<text transform="matrix(1 0 0 1 330.2715 288.3809)" class="st11 st12 st14">ELN</text>
</svg>
