<?xml version="1.0" encoding="utf-8"?>
<!-- Generator: Adobe Illustrator 24.0.1, SVG Export Plug-In . SVG Version: 6.00 Build 0)  -->
<svg version="1.1" id="Capa_1" xmlns="http://www.w3.org/2000/svg" xmlns:xlink="http://www.w3.org/1999/xlink" x="0px" y="0px"
	 viewBox="0 0 512 512" style="enable-background:new 0 0 512 512;" xml:space="preserve">
<style type="text/css">
	.st0{fill:none;stroke:#1D1D1B;stroke-miterlimit:10;}
	.st1{fill:#E53328;}
	.st2{fill:none;}
	.st3{fill:#0FA2B7;}
	.st4{fill:#C3C9CB;}
</style>
<g>
	<path class="st0" d="M354.39,447.27c-0.42-0.32-0.9-0.64-1.32-0.95c0.42,0.32,0.85,0.58,1.27,0.85
		C354.39,447.22,354.39,447.27,354.39,447.27z"/>
	<path class="st1" d="M255.54,454.12c15.47,0,30.99,4.82,44.07,14.41c50.01,36.55,118.76-0.16,118.76-59.7
		c0-2.81-0.16-5.72-0.48-8.63c-3.5-32.31,14.36-63.2,44.13-76.33c29.66-13.08,44.5-40.68,44.5-68.33c0-27.6-14.83-55.2-44.5-68.28
		c-27.28-12.02-44.55-38.99-44.55-68.28c0-2.65,0.11-5.35,0.42-8.05c5.19-47.57-33.05-82.9-74.48-82.9
		c-14.83,0-30.04,4.5-43.81,14.57c-13.08,9.64-28.6,14.41-44.07,14.41c-15.47,0-30.99-4.77-44.07-14.41
		C161.46,6.03,92.7,42.74,92.7,102.28c0,2.81,0.16,5.72,0.48,8.63c0.32,2.7,0.42,5.4,0.42,8.05c0,29.29-17.27,56.26-44.55,68.28
		c-29.66,13.08-44.5,40.68-44.5,68.28c0,27.65,14.83,55.25,44.5,68.33c27.28,12.02,44.55,38.99,44.55,68.28
		c0,2.65-0.11,5.35-0.42,8.05c-5.19,47.57,33.05,82.9,74.48,82.9c14.83,0,30.04-4.5,43.81-14.57
		C224.55,458.95,240.07,454.12,255.54,454.12z M219.62,429.17c-11.23,8.21-23.63,11.87-35.7,11.87c-33.8,0-65-28.82-60.76-67.54
		c0.26-2.23,0.37-4.4,0.37-6.62c0-23.89-14.04-45.87-36.29-55.67c-24.21-10.65-36.34-33.16-36.34-55.67
		c0-22.46,12.13-44.97,36.34-55.62c22.25-9.8,36.29-31.78,36.29-55.67c0-2.22-0.11-4.4-0.37-6.62c-0.26-2.38-0.37-4.71-0.37-6.99
		c0-48.52,56.04-78.45,96.83-48.68c10.7,7.84,23.31,11.76,35.92,11.76s25.21-3.92,35.92-11.76c11.23-8.21,23.63-11.87,35.7-11.87
		c33.8,0,65,28.82,60.76,67.54c-0.26,2.23-0.37,4.4-0.37,6.62c0,23.89,14.04,45.87,36.29,55.67c24.21,10.65,36.34,33.16,36.34,55.62
		c0,22.51-12.13,45.03-36.34,55.67c-24.26,10.7-38.78,35.92-35.92,62.3c0.27,2.38,0.37,4.71,0.37,6.99
		c0,48.52-56.04,78.45-96.83,48.68c-10.7-7.84-23.31-11.76-35.92-11.76S230.32,421.33,219.62,429.17z"/>
	<path class="st2" d="M255.54,417.41c12.61,0,25.21,3.92,35.92,11.76c40.79,29.77,96.83-0.16,96.83-48.68
		c0-2.28-0.11-4.61-0.37-6.99c-2.86-26.38,11.65-51.6,35.92-62.3c24.21-10.65,36.34-33.16,36.34-55.67
		c0-22.46-12.13-44.97-36.34-55.62c-22.25-9.8-36.29-31.78-36.29-55.67c0-2.22,0.11-4.4,0.37-6.62
		c4.24-38.72-26.96-67.54-60.76-67.54c-12.08,0-24.47,3.66-35.7,11.87c-10.7,7.84-23.31,11.76-35.92,11.76s-25.21-3.92-35.92-11.76
		c-40.79-29.77-96.83,0.16-96.83,48.68c0,2.28,0.11,4.61,0.37,6.99c0.26,2.23,0.37,4.4,0.37,6.62c0,23.89-14.04,45.87-36.29,55.67
		c-24.21,10.65-36.34,33.16-36.34,55.62c0,22.51,12.13,45.03,36.34,55.67c22.25,9.8,36.29,31.78,36.29,55.67
		c0,2.22-0.11,4.4-0.37,6.62c-4.24,38.72,26.96,67.54,60.76,67.54c12.08,0,24.47-3.66,35.7-11.87
		C230.32,421.33,242.93,417.41,255.54,417.41z M182.75,366.35c-1.48-9.8-6.14-18.54-12.77-25.21c-6.67-6.67-15.47-11.28-25.21-12.77
		c-10.28-1.64-18.75-6.25-25.16-12.61c-17.85-17.85-19.12-49.58,3.66-67.86c1.27-1.01,2.49-2.12,3.6-3.28
		c12.66-12.61,16.85-31.68,10.28-48.63c-7.15-18.38-1.7-36.71,10.22-48.58c11.92-11.92,30.19-17.43,48.63-10.28
		c16.95,6.57,35.97,2.38,48.63-10.22c1.11-1.17,2.22-2.33,3.28-3.66c1.11-1.38,2.28-2.7,3.5-3.92
		c25.69-25.64,71.14-11.87,76.92,25.43c1.48,9.8,6.14,18.54,12.77,25.21c6.67,6.67,15.41,11.28,25.21,12.77
		c10.28,1.64,18.75,6.25,25.16,12.61c17.85,17.85,19.12,49.58-3.66,67.86c-1.27,1.01-2.49,2.12-3.6,3.28
		c-12.66,12.61-16.85,31.68-10.28,48.63c7.15,18.38,1.7,36.71-10.22,48.58c-11.92,11.92-30.19,17.43-48.63,10.28
		c-18.49-7.15-39.46-1.54-51.91,13.88c-1.11,1.38-2.28,2.7-3.5,3.92C233.98,417.41,188.53,403.64,182.75,366.35z"/>
	<path class="st3" d="M259.67,391.78c1.22-1.22,2.38-2.54,3.5-3.92c12.45-15.41,33.43-21.03,51.91-13.88
		c18.43,7.15,36.71,1.64,48.63-10.28c11.92-11.87,17.37-30.19,10.22-48.58c-6.57-16.95-2.38-36.02,10.28-48.63
		c1.11-1.17,2.33-2.28,3.6-3.28c22.78-18.28,21.51-50.01,3.66-67.86c-6.41-6.36-14.89-10.97-25.16-12.61
		c-9.8-1.48-18.54-6.09-25.21-12.77c-6.62-6.67-11.28-15.41-12.77-25.21c-5.77-37.29-51.22-51.07-76.92-25.43
		c-1.22,1.22-2.38,2.54-3.5,3.92c-1.06,1.32-2.17,2.49-3.28,3.66c-12.66,12.61-31.68,16.79-48.63,10.22
		c-18.43-7.15-36.71-1.64-48.63,10.28c-11.92,11.87-17.38,30.19-10.22,48.58c6.57,16.95,2.38,36.02-10.28,48.63
		c-1.11,1.17-2.33,2.28-3.6,3.28c-22.78,18.28-21.51,50.01-3.66,67.86c6.41,6.36,14.89,10.97,25.16,12.61
		c9.75,1.48,18.54,6.09,25.21,12.77c6.62,6.67,11.28,15.41,12.77,25.21C188.53,403.64,233.98,417.41,259.67,391.78z M196.21,345.85
		c-1.22-8-4.98-15.1-10.44-20.55c-5.4-5.4-12.55-9.16-20.55-10.38c-8.37-1.32-15.26-5.09-20.5-10.28
		c-14.51-14.57-15.57-40.42,2.97-55.3c1.06-0.85,2.01-1.75,2.97-2.7c10.33-10.28,13.72-25.8,8.37-39.62
		c-5.83-14.99-1.38-29.93,8.37-39.62c9.64-9.69,24.58-14.2,39.62-8.32c13.77,5.35,29.29,1.91,39.62-8.37
		c0.95-0.95,1.85-1.96,2.7-3.02c0.9-1.11,1.85-2.17,2.81-3.18c20.92-20.92,58-9.64,62.72,20.77c1.22,8,4.98,15.1,10.44,20.55
		c5.4,5.4,12.55,9.16,20.55,10.38c8.37,1.32,15.26,5.09,20.5,10.28c14.51,14.57,15.57,40.42-2.97,55.3
		c-1.06,0.85-2.01,1.75-2.97,2.7c-10.33,10.28-13.72,25.8-8.37,39.62c5.83,14.99,1.38,29.93-8.32,39.62
		c-9.69,9.69-24.63,14.2-39.68,8.32c-15.04-5.83-32.15-1.22-42.32,11.39c-0.9,1.11-1.85,2.17-2.81,3.18
		C238,387.54,200.92,376.26,196.21,345.85z"/>
	<path class="st2" d="M258.93,366.61c0.95-1.01,1.91-2.07,2.81-3.18c10.17-12.61,27.28-17.22,42.32-11.39
		c15.04,5.88,29.98,1.38,39.68-8.32c9.69-9.69,14.14-24.63,8.32-39.62c-5.35-13.83-1.96-29.35,8.37-39.62
		c0.95-0.95,1.91-1.85,2.97-2.7c18.54-14.89,17.48-40.74,2.97-55.3c-5.24-5.19-12.13-8.95-20.5-10.28
		c-8-1.22-15.15-4.98-20.55-10.38c-5.46-5.46-9.22-12.55-10.44-20.55c-4.71-30.41-41.8-41.69-62.72-20.77
		c-0.95,1.01-1.91,2.07-2.81,3.18c-0.85,1.06-1.75,2.07-2.7,3.02c-10.33,10.28-25.85,13.72-39.62,8.37
		c-15.04-5.88-29.98-1.38-39.62,8.32c-9.75,9.69-14.2,24.63-8.37,39.62c5.35,13.83,1.96,29.35-8.37,39.62
		c-0.95,0.95-1.91,1.85-2.97,2.7c-18.54,14.89-17.48,40.74-2.97,55.3c5.24,5.19,12.13,8.95,20.5,10.28
		c8,1.22,15.15,4.98,20.55,10.38c5.46,5.46,9.22,12.55,10.44,20.55C200.92,376.26,238,387.54,258.93,366.61z M234.45,319.31
		c-4.08-9.22-13.56-14.73-23.57-13.67c-0.9,0.11-1.8,0.16-2.65,0.16c-18.38,0-29.72-21.19-18.43-36.66
		c2.97-4.03,4.45-8.79,4.45-13.56c0-4.82-1.48-9.59-4.45-13.61c-3.13-4.29-4.5-8.95-4.5-13.56c0-12.77,10.91-24.58,25.59-22.94
		c0.85,0.05,1.7,0.11,2.49,0.11c9.06,0,17.37-5.35,21.08-13.77c4.03-9.11,12.55-13.72,21.08-13.72s17.06,4.61,21.08,13.72
		c3.71,8.42,12.02,13.77,21.08,13.77c0.79,0,1.64-0.05,2.49-0.11c0.9-0.11,1.8-0.16,2.65-0.16c18.38,0,29.72,21.19,18.43,36.66
		c-2.97,4.03-4.45,8.79-4.45,13.61c0,4.77,1.48,9.53,4.45,13.56c3.13,4.29,4.5,8.95,4.5,13.56c0,12.77-10.91,24.58-25.59,22.94
		c-0.85-0.05-1.7-0.11-2.49-0.11c-9.06,0-17.38,5.35-21.08,13.77c-4.03,9.11-12.55,13.72-21.08,13.72S238.48,328.42,234.45,319.31z"
		/>
	<path class="st4" d="M276.62,319.31c3.71-8.42,12.02-13.77,21.08-13.77c0.79,0,1.64,0.05,2.49,0.11
		c14.67,1.64,25.59-10.17,25.59-22.94c0-4.61-1.38-9.27-4.5-13.56c-2.97-4.03-4.45-8.79-4.45-13.56c0-4.82,1.48-9.59,4.45-13.61
		c11.28-15.47-0.05-36.66-18.43-36.66c-0.85,0-1.75,0.05-2.65,0.16c-0.85,0.05-1.7,0.11-2.49,0.11c-9.06,0-17.38-5.35-21.08-13.77
		c-4.03-9.11-12.55-13.72-21.08-13.72s-17.06,4.61-21.08,13.72c-3.71,8.42-12.02,13.77-21.08,13.77c-0.79,0-1.64-0.05-2.49-0.11
		c-14.67-1.64-25.59,10.17-25.59,22.94c0,4.61,1.38,9.27,4.5,13.56c2.97,4.03,4.45,8.79,4.45,13.61c0,4.77-1.48,9.53-4.45,13.56
		c-11.28,15.47,0.05,36.66,18.43,36.66c0.85,0,1.75-0.05,2.65-0.16c10.01-1.06,19.49,4.45,23.57,13.67
		c4.03,9.11,12.55,13.72,21.08,13.72S272.59,328.42,276.62,319.31z M238.37,307.5c-3.34-7.47-11.07-11.97-19.23-11.07
		c-0.74,0.05-1.48,0.11-2.17,0.11c-14.99,0-24.21-17.32-15.04-29.88c2.44-3.34,3.66-7.2,3.66-11.07c0-3.92-1.22-7.79-3.66-11.12
		c-2.49-3.44-3.66-7.26-3.66-11.02c0-10.44,8.9-20.02,20.87-18.75c0.69,0.11,1.32,0.11,2.01,0.11c7.42,0,14.2-4.29,17.22-11.18
		c3.28-7.47,10.22-11.23,17.16-11.23c6.94,0,13.88,3.76,17.16,11.23c3.02,6.89,9.8,11.18,17.22,11.18c0.69,0,1.32,0,2.01-0.11
		c0.74-0.05,1.48-0.11,2.17-0.11c14.99,0,24.21,17.32,15.04,29.88c-2.44,3.34-3.66,7.2-3.66,11.12c0,3.87,1.22,7.73,3.66,11.07
		c2.49,3.44,3.66,7.26,3.66,11.02c0,10.44-8.9,20.02-20.87,18.75c-0.69-0.11-1.32-0.11-2.01-0.11c-7.42,0-14.2,4.29-17.22,11.18
		c-3.28,7.47-10.22,11.23-17.16,11.23C248.6,318.73,241.66,314.97,238.37,307.5z"/>
	<path class="st2" d="M255.54,318.73c-6.94,0-13.88-3.76-17.16-11.23c-3.34-7.47-11.07-11.97-19.23-11.07
		c-0.74,0.05-1.48,0.11-2.17,0.11c-14.99,0-24.21-17.32-15.04-29.88c2.44-3.34,3.66-7.2,3.66-11.07c0-3.92-1.22-7.79-3.66-11.12
		c-2.49-3.44-3.66-7.26-3.66-11.02c0-10.44,8.9-20.02,20.87-18.75c0.69,0.11,1.32,0.11,2.01,0.11c7.42,0,14.2-4.29,17.22-11.18
		c3.28-7.47,10.22-11.23,17.16-11.23c6.94,0,13.88,3.76,17.16,11.23c3.02,6.89,9.8,11.18,17.22,11.18c0.69,0,1.32,0,2.01-0.11
		c0.74-0.05,1.48-0.11,2.17-0.11c14.99,0,24.21,17.32,15.04,29.88c-2.44,3.34-3.66,7.2-3.66,11.12c0,3.87,1.22,7.73,3.66,11.07
		c2.49,3.44,3.66,7.26,3.66,11.02c0,10.44-8.9,20.02-20.87,18.75c-0.69-0.11-1.32-0.11-2.01-0.11c-7.42,0-14.2,4.29-17.22,11.18
		C269.41,314.97,262.48,318.73,255.54,318.73z"/>
</g>
</svg>
